<?xml version="1.0" encoding="utf-8"?>
<!-- Generator: Adobe Illustrator 22.0.1, SVG Export Plug-In . SVG Version: 6.00 Build 0)  -->
<svg version="1.1" id="Layer_1" xmlns="http://www.w3.org/2000/svg" xmlns:xlink="http://www.w3.org/1999/xlink" x="0px" y="0px"
	 viewBox="0 0 649 166" style="enable-background:new 0 0 649 166;" xml:space="preserve">
<style type="text/css">
	.st0{fill:#FFFFFF;}
</style>
<g>
	<path class="st0" d="M615.4,113.9c0,3.8,0.1,7.3,0.4,10.6h-4.1l-0.3-7.8h-0.2c-2.2,4.1-7.2,8.8-14.9,8.8c-5.6,0-14.9-2.8-14.9-19.3
		V80.9h4.4v24.6c0,9.5,2.9,16.3,11.6,16.3c6.4,0,11-4.5,12.9-8.8c0.5-1.4,0.8-3.1,0.8-4.8V80.9h4.4V113.9z"/>
	<path class="st0" d="M522,110.2c0-0.2,0-0.3,0-0.5c0-2.4-1.5-4.1-3.6-4.1c-2.2,0-3.7,1.7-3.7,4.1c0,0.2,0,0.3,0,0.5H522z"/>
	<path class="st0" d="M537.3,110.2V97.9c0-1.8,0.1-3,0.5-4.4c1.9-5.4,7-9.8,13.2-9.8c8.9,0,12,7.2,12,15v11.5h4.4v-12
		c0-16.3-11.1-18.4-15.2-18.4c-3.3,0-6.3,1-8.8,2.5s-4.6,3.8-5.9,6.3h-0.2V59.8h-4.4v50.4H537.3z"/>
</g>
<g>
	<g>
		<path class="st0" d="M93,24.5c-32.4,0-58.7,26.3-58.7,58.7s26.3,58.7,58.7,58.7c3.9,0,7.7-0.4,11.4-1.1l0.1-0.4
			c0.2-0.9,0.3-1.8,0.3-2.8c0-7.2-5.4-11.6-20.5-16.9c-23.2-8.3-34.5-20.5-34.5-37.2c0-10.6,4.5-20.1,12.7-26.9
			c8.6-7,20.5-10.7,34.6-10.7c12.3,0,23,2.1,31.8,6.3l0.3,0.2l-6.5,23.3l-0.5-0.2c-5.3-2.7-14.1-5.8-25.6-5.8
			c-12.1,0-17.6,5.8-17.6,11.5c0,7.7,6.9,11.1,22.7,17.1c18,6.7,28,15.5,31.2,27.9c11.5-10.7,18.6-25.9,18.6-42.9
			C151.7,50.7,125.4,24.5,93,24.5z"/>
	</g>
</g>
<g>
	<g>
		<path class="st0" d="M354.7,79.8c-3.7,0-6.9,0.9-9.6,2.4l2.1,2.8c2-1,4.2-1.6,6.5-1.6c9.9,0,15.4,8.8,15.4,18.7
			c0,11.6-5.7,19.7-15.7,19.7c-6.7,0-12.6-4.4-14.4-11.1c-0.3-1.1-0.4-2.3-0.4-3.5v-8.6c0-0.4,0-0.8,0.1-1.2l-0.4-9.1l0,0l-0.3-7.7
			h-4.2c0.3,4.2,0.4,8.5,0.4,13.9v47.8h4.4v-25.1h0.2c3,5.3,8.6,8.1,14.8,8.1c10.6,0,19.8-8,19.8-23.6
			C373.4,89.1,365.9,79.8,354.7,79.8z"/>
	</g>
	<path class="st0" d="M161.1,110.2h4.4V97.5c0-1.5,0.3-3,0.6-4.3c1.6-5.1,6.3-9.8,12.1-9.8c7.1,0,10.8,5.8,10.8,13.7v13.1h4.4V96.4
		c0-1.6,0.4-3.1,0.7-4.4c1.7-4.5,6-8.6,11.5-8.6c7.6,0,11.4,5.8,11.4,15.7v11.1h4.4V98.7c0-16.6-10-18.9-14.3-18.9
		c-4.6,0-7.6,1.3-10.4,3.5c-1.6,1.4-3.3,3.4-4.5,5.9h-0.2c-1.9-5.5-6.6-9.5-12.6-9.5c-7.2,0-11.4,3.6-14.2,8.6h-0.2l-0.3-7.6h-4.1
		c0.3,3.5,0.4,6.5,0.4,10.5V110.2z"/>
	<g>
		<path class="st0" d="M247.3,83.4c10.4-0.1,11.2,8.6,11.2,12.8v0.3h0v13.7h4.4V97c0-7.7-2.5-17.2-15.1-17.2
			c-3.9,0-8.8,1.1-12.8,3.7l1.4,3.2C239.5,84.4,243.5,83.4,247.3,83.4z"/>
		<path class="st0" d="M232.2,110.2h4.5c1.4-6.3,8.4-8.5,15.6-9l0.8-3.6C240.7,98.5,233.7,103.1,232.2,110.2z"/>
	</g>
	<path class="st0" d="M276.9,110.2h4.4v-9.9c0-1.5,0.1-2.9,0.4-4.2c1.2-7,5.5-12.2,11.5-12.2c0.8,0,1.5,0,2.1,0.1V80
		c-0.5-0.1-1.2-0.2-1.8-0.2c-5.9,0-10.5,4.3-12.4,9.8h-0.3l-0.2-8.8h-4c0.3,4.3,0.4,8.7,0.4,13.1V110.2z"/>
	<polygon class="st0" points="307.8,110.2 312.2,110.2 312.2,84.3 324.7,84.3 324.7,80.8 312.2,80.8 312.2,71.1 307.8,72.8 
		307.8,80.8 300.5,80.8 300.5,84.3 307.8,84.3 	"/>
	<g>
		<path class="st0" d="M381.1,110.2h4.5c1.4-6.3,8.4-8.5,15.5-9l0.8-3.6C389.5,98.5,382.6,103.1,381.1,110.2z"/>
		<path class="st0" d="M396.2,83.4c10.4-0.1,11.2,8.6,11.2,12.8v1.2c0,0,0,0,0,0v3.6c0,0,0,0,0,0v9.1h4.4V97
			c0-7.7-2.5-17.2-15.1-17.2c-3.9,0-8.8,1.1-12.8,3.7l1.4,3.2C388.4,84.4,392.4,83.4,396.2,83.4z"/>
	</g>
	<path class="st0" d="M425.8,110.2h4.4v-9.9c0-1.5,0.1-2.9,0.4-4.2c1.2-7,5.5-12.2,11.5-12.2c0.8,0,1.5,0,2.1,0.1V80
		c-0.5-0.1-1.2-0.2-1.8-0.2c-5.9,0-10.5,4.3-12.4,9.8h-0.3l-0.2-8.8h-4c0.3,4.3,0.4,8.7,0.4,13.1V110.2z"/>
	<polygon class="st0" points="456.7,110.2 461.1,110.2 461.1,84.3 473.5,84.3 473.5,80.8 461.1,80.8 461.1,71.1 456.7,72.8 
		456.7,80.8 449.3,80.8 449.3,84.3 456.7,84.3 	"/>
	<path class="st0" d="M492.2,103.5c4.7,1.9,7.5,3.8,8.6,6.7h4.6c-1-5-4.9-7.9-11-10.3c-5.9-2.5-9-4.4-9-8.9c0-4,2.9-7.6,8.5-7.6
		c4.4,0,7.2,1.5,8.7,2.6l1.6-3.5c-2.2-1.5-5.6-2.7-9.6-2.7c-8.5,0-13.5,5.5-13.5,11.8C481.1,96.9,485,100.8,492.2,103.5z"/>
</g>
</svg>
