<?xml version="1.0" encoding="utf-8"?>
<!-- Generator: Adobe Illustrator 22.0.1, SVG Export Plug-In . SVG Version: 6.00 Build 0)  -->
<svg version="1.1" id="Layer_1" xmlns="http://www.w3.org/2000/svg" xmlns:xlink="http://www.w3.org/1999/xlink" x="0px" y="0px"
	 viewBox="0 0 649 166" style="enable-background:new 0 0 649 166;" xml:space="preserve">
<style type="text/css">
	.st0{fill:#FFFFFF;}
</style>
<path class="st0" d="M93.2,23.9c-32.4,0-58.7,26.3-58.7,58.7s26.3,58.7,58.7,58.7c3.9,0,7.7-0.4,11.4-1.1l0.1-0.4
	c0.2-0.9,0.3-1.8,0.3-2.8c0-7.2-5.4-11.6-20.5-16.9c-23.2-8.3-34.5-20.5-34.5-37.2c0-10.6,4.5-20.1,12.7-26.9
	c8.6-7,20.5-10.7,34.6-10.7c12.3,0,23,2.1,31.8,6.3l0.3,0.2L123,75l-0.5-0.2c-5.3-2.7-14.1-5.8-25.6-5.8c-12.1,0-17.6,5.8-17.6,11.5
	c0,7.7,6.9,11.1,22.7,17.1c18,6.7,28,15.5,31.2,27.9c11.5-10.7,18.6-25.9,18.6-42.9C151.8,50.2,125.6,23.9,93.2,23.9z"/>
<g>
	<path class="st0" d="M165.7,96.9c0-1.5,0.3-3,0.6-4.3c1.6-5.1,6.3-9.8,12.1-9.8c7.1,0,10.8,5.8,10.8,13.7v13.1h4.4V95.8
		c0-1.6,0.4-3.1,0.7-4.4c1.7-4.5,6-8.6,11.5-8.6c7.6,0,11.4,5.8,11.4,15.7v11.1h4.4V98.1c0-16.6-10-18.9-14.3-18.9
		c-4.6,0-7.6,1.3-10.4,3.5c-1.6,1.4-3.3,3.4-4.5,5.9h-0.2c-1.9-5.5-6.6-9.5-12.6-9.5c-7.2,0-11.4,3.6-14.2,8.6h-0.2l-0.3-7.6H161
		c0.3,3.5,0.4,6.5,0.4,10.5v19h4.4V96.9z"/>
	<path class="st0" d="M281.4,99.7c0-1.5,0.1-2.9,0.4-4.2c1.2-7,5.5-12.2,11.5-12.2c0.8,0,1.5,0,2.1,0.1v-4.1
		c-0.5-0.1-1.2-0.2-1.8-0.2c-5.9,0-10.5,4.3-12.4,9.8h-0.3l-0.2-8.8h-4c0.3,4.3,0.4,8.7,0.4,13.1v16.3h4.4V99.7z"/>
	<polygon class="st0" points="312.4,83.7 324.8,83.7 324.8,80.1 312.4,80.1 312.4,70.5 308,72.1 308,80.1 300.6,80.1 300.6,83.7 
		308,83.7 308,109.6 312.4,109.6 	"/>
	<path class="st0" d="M345.7,99.3c-5.9-2.5-9-4.4-9-8.9c0-4,2.9-7.6,8.5-7.6c4.4,0,7.2,1.5,8.7,2.6l1.6-3.5
		c-2.2-1.5-5.6-2.7-9.6-2.7c-8.5,0-13.5,5.5-13.5,11.8c0,5.3,3.9,9.2,11.1,11.9c4.7,1.9,7.5,3.8,8.6,6.7h4.6
		C355.7,104.6,351.8,101.7,345.7,99.3z"/>
	<path class="st0" d="M369.2,102.1c0-9.4,5-19.3,16.2-19.3c11.6,0,16,11,16,19c0,2.8-0.5,5.4-1.3,7.8h4.6c0.7-2.4,1-5,1-8
		c0-13.4-8.2-22.5-20.3-22.5c-10.8,0-20.7,8.3-20.7,23.2c0,2.6,0.3,5,0.9,7.2h4.7C369.6,107.3,369.2,104.8,369.2,102.1z"/>
	<rect x="416.8" y="59.1" class="st0" width="4.4" height="50.5"/>
	<path class="st0" d="M440.1,104.7V80.1h-4.4v25.4c0,1.5,0.1,2.8,0.2,4h4.5C440.2,108.1,440.1,106.4,440.1,104.7z"/>
	<path class="st0" d="M469.8,80.1h-4.4v27.2c0,0.8-0.1,1.5-0.2,2.2h4.6V80.1z"/>
	<polygon class="st0" points="490.5,83.7 502.9,83.7 502.9,80.1 490.5,80.1 490.5,70.5 486.1,72.1 486.1,80.1 478.7,80.1 
		478.7,83.7 486.1,83.7 486.1,109.6 490.5,109.6 	"/>
	<rect x="512.6" y="80.1" class="st0" width="4.4" height="29.4"/>
	<path class="st0" d="M514.6,71.4L514.6,71.4c2.3,0,3.6-1.7,3.6-3.7c0-2.1-1.5-3.8-3.5-3.8s-3.5,1.8-3.5,3.8S512.6,71.4,514.6,71.4z
		"/>
	<path class="st0" d="M532.3,102.1c0-9.4,5-19.3,16.2-19.3c11.6,0,16,11,16,19c0,2.8-0.5,5.4-1.3,7.8h4.6c0.7-2.4,1-5,1-8
		c0-13.4-8.2-22.5-20.3-22.5c-10.8,0-20.7,8.3-20.7,23.2c0,2.6,0.3,5,0.9,7.2h4.7C532.7,107.3,532.3,104.8,532.3,102.1z"/>
	<g>
		<path class="st0" d="M584,88L584,88l-0.3-7.8h-4.1c0.3,3.5,0.4,6.5,0.4,10.5v33.2h4.4V96.7c0-0.2,0-0.3,0-0.5L584,88z"/>
		<path class="st0" d="M599.2,79.1c-3.2,0-6.2,0.8-8.6,2.2l2,2.6c1.7-0.8,3.5-1.2,5.4-1.2c9,0,12.1,7.2,12.1,15.2v25.8h4.4V97.6
			C614.5,81.2,603.4,79.1,599.2,79.1z"/>
	</g>
	<g>
		<path class="st0" d="M253.2,97c-12.4,0.9-19.3,5.5-20.9,12.6h4.5c1.4-6.3,8.4-8.5,15.6-9L253.2,97z"/>
		<path class="st0" d="M247.9,79.1c-3.9,0-8.8,1.1-12.8,3.7l1.4,3.2c3.2-2.3,7.2-3.3,11-3.3c10.4-0.1,11.2,8.6,11.2,12.8V96h0v13.6
			h4.4V96.3C263.1,88.6,260.6,79.1,247.9,79.1z"/>
	</g>
</g>
<g>
	<g>
		<path class="st0" d="M93.2,23.9c-32.4,0-58.7,26.3-58.7,58.7s26.3,58.7,58.7,58.7c3.9,0,7.7-0.4,11.4-1.1l0.1-0.4
			c0.2-0.9,0.3-1.8,0.3-2.8c0-7.2-5.4-11.6-20.5-16.9c-23.2-8.3-34.5-20.5-34.5-37.2c0-10.6,4.5-20.1,12.7-26.9
			c8.6-7,20.5-10.7,34.6-10.7c12.3,0,23,2.1,31.8,6.3l0.3,0.2L123,75l-0.5-0.2c-5.3-2.7-14.1-5.8-25.6-5.8
			c-12.1,0-17.6,5.8-17.6,11.5c0,7.7,6.9,11.1,22.7,17.1c18,6.7,28,15.5,31.2,27.9c11.5-10.7,18.6-25.9,18.6-42.9
			C151.8,50.2,125.6,23.9,93.2,23.9z"/>
	</g>
</g>
<g>
	<path class="st0" d="M163.1,119.4l1.6,6.1c0.3,1.3,0.7,2.6,0.9,3.8h0.1c0.3-1.2,0.7-2.5,1.1-3.8l1.9-6.1h1.8l1.8,6
		c0.4,1.4,0.8,2.7,1.1,3.9h0.1c0.2-1.2,0.5-2.5,0.9-3.9l1.7-6h2.1l-3.8,11.9h-2l-1.8-5.7c-0.4-1.3-0.8-2.5-1.1-3.9h0
		c-0.3,1.4-0.7,2.7-1.1,3.9l-1.9,5.7h-2l-3.6-11.9H163.1z"/>
	<path class="st0" d="M190.7,119.4l1.6,6.1c0.3,1.3,0.7,2.6,0.9,3.8h0.1c0.3-1.2,0.7-2.5,1.1-3.8l1.9-6.1h1.8l1.8,6
		c0.4,1.4,0.8,2.7,1.1,3.9h0.1c0.2-1.2,0.5-2.5,0.9-3.9l1.7-6h2.1l-3.8,11.9h-2l-1.8-5.7c-0.4-1.3-0.8-2.5-1.1-3.9h0
		c-0.3,1.4-0.7,2.7-1.1,3.9l-1.9,5.7h-2l-3.6-11.9H190.7z"/>
	<path class="st0" d="M218.4,119.4l1.6,6.1c0.3,1.3,0.7,2.6,0.9,3.8h0.1c0.3-1.2,0.7-2.5,1.1-3.8l1.9-6.1h1.8l1.8,6
		c0.4,1.4,0.8,2.7,1.1,3.9h0.1c0.2-1.2,0.5-2.5,0.9-3.9l1.7-6h2.1l-3.8,11.9h-2l-1.8-5.7c-0.4-1.3-0.8-2.5-1.1-3.9h0
		c-0.3,1.4-0.7,2.7-1.1,3.9l-1.9,5.7h-2l-3.6-11.9H218.4z"/>
	<path class="st0" d="M243.4,130.1c0-0.9,0.6-1.6,1.5-1.6c0.9,0,1.5,0.6,1.5,1.6c0,0.9-0.6,1.6-1.5,1.6
		C244,131.6,243.4,131,243.4,130.1z"/>
	<path class="st0" d="M258,129.1c0.6,0.4,1.8,0.9,2.9,0.9c1.6,0,2.3-0.8,2.3-1.8c0-1-0.6-1.6-2.2-2.2c-2.1-0.8-3.2-1.9-3.2-3.4
		c0-1.9,1.6-3.5,4.1-3.5c1.2,0,2.3,0.3,2.9,0.7l-0.5,1.6c-0.5-0.3-1.3-0.7-2.4-0.7c-1.3,0-2,0.7-2,1.6c0,1,0.7,1.4,2.3,2
		c2.1,0.8,3.1,1.8,3.1,3.6c0,2.1-1.6,3.6-4.5,3.6c-1.3,0-2.5-0.3-3.3-0.8L258,129.1z"/>
	<path class="st0" d="M277.3,122.7c0-1.2,0-2.2-0.1-3.2h1.9l0.1,1.9h0.1c0.7-1.1,1.8-2.2,3.7-2.2c1.6,0,2.9,1,3.4,2.4h0
		c0.4-0.7,0.8-1.2,1.3-1.6c0.7-0.5,1.5-0.8,2.6-0.8c1.6,0,3.9,1,3.9,5.2v7h-2.1v-6.7c0-2.3-0.8-3.7-2.6-3.7c-1.2,0-2.2,0.9-2.6,2
		c-0.1,0.3-0.2,0.7-0.2,1.1v7.4h-2.1v-7.1c0-1.9-0.8-3.3-2.5-3.3c-1.4,0-2.3,1.1-2.7,2.2c-0.1,0.3-0.2,0.7-0.2,1.1v7.2h-2.1V122.7z"
		/>
	<path class="st0" d="M313.6,131.4l-0.2-1.5h-0.1c-0.7,0.9-1.9,1.8-3.6,1.8c-2.4,0-3.6-1.7-3.6-3.4c0-2.9,2.6-4.5,7.2-4.4v-0.2
		c0-1-0.3-2.8-2.7-2.8c-1.1,0-2.3,0.3-3.1,0.9l-0.5-1.4c1-0.6,2.4-1.1,3.9-1.1c3.6,0,4.5,2.5,4.5,4.9v4.5c0,1,0,2,0.2,2.9H313.6z
		 M313.3,125.3c-2.4,0-5,0.4-5,2.7c0,1.4,0.9,2.1,2,2.1c1.6,0,2.5-1,2.9-2c0.1-0.2,0.1-0.5,0.1-0.7V125.3z"/>
	<path class="st0" d="M328.2,123.2c0-1.4,0-2.6-0.1-3.7h1.9l0.1,2.3h0.1c0.5-1.6,1.8-2.6,3.3-2.6c0.2,0,0.4,0,0.6,0.1v2
		c-0.2,0-0.4-0.1-0.7-0.1c-1.5,0-2.6,1.2-2.9,2.8c0,0.3-0.1,0.6-0.1,1v6.4h-2.1V123.2z"/>
	<path class="st0" d="M348.7,116v3.4h3.1v1.6h-3.1v6.4c0,1.5,0.4,2.3,1.6,2.3c0.6,0,1-0.1,1.3-0.1l0.1,1.6c-0.4,0.2-1.1,0.3-1.9,0.3
		c-1,0-1.8-0.3-2.3-0.9c-0.6-0.6-0.8-1.7-0.8-3.1v-6.5h-1.8v-1.6h1.8v-2.9L348.7,116z"/>
	<path class="st0" d="M363.1,129.1c0.6,0.4,1.8,0.9,2.9,0.9c1.6,0,2.3-0.8,2.3-1.8c0-1-0.6-1.6-2.2-2.2c-2.1-0.8-3.2-1.9-3.2-3.4
		c0-1.9,1.6-3.5,4.1-3.5c1.2,0,2.3,0.3,2.9,0.7l-0.5,1.6c-0.5-0.3-1.3-0.7-2.4-0.7c-1.3,0-2,0.7-2,1.6c0,1,0.7,1.4,2.3,2
		c2.1,0.8,3.1,1.8,3.1,3.6c0,2.1-1.6,3.6-4.5,3.6c-1.3,0-2.5-0.3-3.3-0.8L363.1,129.1z"/>
	<path class="st0" d="M393.2,125.3c0,4.4-3.1,6.3-5.9,6.3c-3.2,0-5.7-2.4-5.7-6.1c0-4,2.6-6.3,5.9-6.3
		C390.9,119.2,393.2,121.7,393.2,125.3z M383.8,125.4c0,2.6,1.5,4.6,3.6,4.6c2.1,0,3.6-1.9,3.6-4.6c0-2-1-4.6-3.6-4.6
		S383.8,123.2,383.8,125.4z"/>
	<path class="st0" d="M405.2,113.9h2.2v17.5h-2.2V113.9z"/>
	<path class="st0" d="M430.2,128.1c0,1.2,0,2.3,0.1,3.2h-1.9l-0.1-1.9h0c-0.6,1-1.8,2.2-3.9,2.2c-1.9,0-4.1-1-4.1-5.2v-7h2.2v6.6
		c0,2.3,0.7,3.8,2.7,3.8c1.5,0,2.5-1,2.9-2c0.1-0.3,0.2-0.7,0.2-1.1v-7.3h2.2V128.1z"/>
	<path class="st0" d="M445.7,116v3.4h3.1v1.6h-3.1v6.4c0,1.5,0.4,2.3,1.6,2.3c0.6,0,1-0.1,1.3-0.1l0.1,1.6c-0.4,0.2-1.1,0.3-1.9,0.3
		c-1,0-1.8-0.3-2.3-0.9c-0.6-0.6-0.8-1.7-0.8-3.1v-6.5h-1.8v-1.6h1.8v-2.9L445.7,116z"/>
	<path class="st0" d="M462.9,116.1c0,0.7-0.5,1.3-1.4,1.3c-0.8,0-1.3-0.6-1.3-1.3c0-0.8,0.6-1.4,1.4-1.4
		C462.4,114.7,462.9,115.3,462.9,116.1z M460.5,131.4v-11.9h2.2v11.9H460.5z"/>
	<path class="st0" d="M486.2,125.3c0,4.4-3.1,6.3-5.9,6.3c-3.2,0-5.7-2.4-5.7-6.1c0-4,2.6-6.3,5.9-6.3
		C483.9,119.2,486.2,121.7,486.2,125.3z M476.8,125.4c0,2.6,1.5,4.6,3.6,4.6c2.1,0,3.6-1.9,3.6-4.6c0-2-1-4.6-3.6-4.6
		S476.8,123.2,476.8,125.4z"/>
	<path class="st0" d="M498.2,122.7c0-1.2,0-2.2-0.1-3.2h1.9l0.1,2h0c0.6-1.1,2-2.2,3.9-2.2c1.6,0,4.2,1,4.2,5.1v7.1h-2.2v-6.9
		c0-1.9-0.7-3.5-2.8-3.5c-1.4,0-2.5,1-2.9,2.2c-0.1,0.3-0.1,0.6-0.1,1v7.2h-2.2V122.7z"/>
	<path class="st0" d="M520.6,130.1c0-0.9,0.6-1.6,1.5-1.6s1.5,0.6,1.5,1.6c0,0.9-0.6,1.6-1.5,1.6C521.2,131.6,520.6,131,520.6,130.1
		z"/>
	<path class="st0" d="M535.5,113.9h2.2v7.4h0c0.3-0.6,0.9-1.2,1.6-1.5c0.6-0.4,1.4-0.6,2.2-0.6c1.6,0,4.2,1,4.2,5.1v7.1h-2.2v-6.8
		c0-1.9-0.7-3.5-2.8-3.5c-1.4,0-2.5,1-2.9,2.2c-0.1,0.3-0.1,0.6-0.1,1v7.2h-2.2V113.9z"/>
	<path class="st0" d="M568.4,128.1c0,1.2,0,2.3,0.1,3.2h-1.9l-0.1-1.9h0c-0.6,1-1.8,2.2-3.9,2.2c-1.9,0-4.1-1-4.1-5.2v-7h2.2v6.6
		c0,2.3,0.7,3.8,2.7,3.8c1.5,0,2.5-1,2.9-2c0.1-0.3,0.2-0.7,0.2-1.1v-7.3h2.2V128.1z"/>
</g>
<path class="st0" d="M93.2,24.8c-32.4,0-58.7,26.3-58.7,58.7s26.3,58.7,58.7,58.7c3.9,0,7.7-0.4,11.4-1.1l0.1-0.4
	c0.2-0.9,0.3-1.8,0.3-2.8c0-7.2-5.4-11.6-20.5-16.9c-23.2-8.3-34.5-20.5-34.5-37.2c0-10.6,4.5-20.1,12.7-26.9
	c8.6-7,20.5-10.7,34.6-10.7c12.3,0,23,2.1,31.8,6.3l0.3,0.2L123,75.9l-0.5-0.2c-5.3-2.7-14.1-5.8-25.6-5.8
	c-12.1,0-17.6,5.8-17.6,11.5c0,7.7,6.9,11.1,22.7,17.1c18,6.7,28,15.5,31.2,27.9c11.5-10.7,18.6-25.9,18.6-42.9
	C151.8,51,125.6,24.8,93.2,24.8z"/>
</svg>
