<?xml version="1.0" encoding="utf-8"?>
<!-- Generator: Adobe Illustrator 21.0.2, SVG Export Plug-In . SVG Version: 6.00 Build 0)  -->
<svg version="1.1" id="Layer_1" xmlns="http://www.w3.org/2000/svg" xmlns:xlink="http://www.w3.org/1999/xlink" x="0px" y="0px"
	 viewBox="0 0 153.3 148.5" style="enable-background:new 0 0 153.3 148.5;" xml:space="preserve">
<style type="text/css">
	.st0{fill:#FFFFFF;}
</style>
<path class="st0" d="M75.7,15.6C43.3,15.6,17,41.8,17,74.2s26.3,58.7,58.7,58.7c3.9,0,7.7-0.4,11.4-1.1l0.1-0.4
	c0.2-0.9,0.3-1.8,0.3-2.8c0-7.2-5.4-11.6-20.5-16.9c-23.2-8.3-34.5-20.5-34.5-37.2c0-10.6,4.5-20.1,12.7-26.9
	c8.6-7,20.5-10.7,34.6-10.7c12.3,0,23,2.1,31.8,6.3l0.3,0.2l-6.5,23.3l-0.5-0.2c-5.3-2.7-14.1-5.8-25.6-5.8
	c-12.1,0-17.6,5.8-17.6,11.5c0,7.7,6.9,11.1,22.7,17.1c18,6.7,28,15.5,31.2,27.9c11.5-10.7,18.6-25.9,18.6-42.9
	C134.3,41.8,108.1,15.6,75.7,15.6"/>
</svg>
